PathFileType	4	(X/Y/Z)	C:/Users/beibeiliu/ov580/test_trc/User2\sequence.3_training_dense_left.trc
DataRate	CameraRate	NumFrames	NumMarkers	Units	OrigDataRate	OrigDataStartFrame	OrigNumFrames
120	120	13	19	mm	120	1	47
Frame#	Time	ThumbCMC			ThumbMCP			ThumbIP			ThumbTip			IndexMCP			IndexPIP			IndexTip			MiddleMCP			MiddlePIP			MiddleTip			RingMCP			RingPIP			RingTip			PinkyMCP			PinkyPIP			PinkyTip			BackHand1			BackHand2			BackHand3	
		X0	Y0	Z0	X1	Y1	Z1	X2	Y2	Z2	X3	Y3	Z3	X4	Y4	Z4	X5	Y5	Z5	X6	Y6	Z6	X7	Y7	Z7	X8	Y8	Z8	X9	Y9	Z9	X10	Y10	Z10	X11	Y11	Z11	X12	Y12	Z12	X13	Y13	Z13	X14	Y14	Z14	X15	Y15	Z15	X16	Y16	Z16	X17	Y17	Z17	X18	Y18	Z18	
0	0	-249.425	13.3068	39.3219	-227.331	10.5632	14.3086	-213.316	-3.50321	-17.5956	-218.18	-28.2533	-39.016	-249.235	-21.1266	-42.286	-236.975	-37.9196	-60.369	-225.687	-60.9249	-82.2612	-261.696	-36.6027	-48.2109	-249.67	-57.2766	-67.6218	-238.668	-79.156	-87.7134	-276.377	-50.0538	-44.5692	-267.743	-65.1484	-59.3219	-254.816	-83.9155	-77.8096	-295.637	-61.3462	-28.2252	-284.243	-75.4225	-42.3188	-269.219	-86.9532	-61.6106	-305.305	-16.238	0.539025	-316.635	-1.57931	34.3701	-282.99	11.6004	16.2053	
1	0.00833333	-257.154	21.3443	37.7673	-235.317	24.3047	12.6972	-221.513	7.81446	-14.0881	-214.993	-15.0529	-34.3204	-244.982	-18.6727	-38.6225	-228.186	-36.0356	-56.2185	-211.551	-56.1437	-71.8937	-250	-37.4595	-43.3488	-234.742	-53.4118	-56.5974	-216.661	-75.9896	-74.8835	-265.732	-56.0783	-35.7617	-247.049	-67.1972	-48.5488	-226.383	-86.0576	-67.3353	-278.037	-64.3678	-16.5827	-258.221	-81.4524	-34.8459	-245.893	-89.5304	-48.8655	-303.241	-24.9912	7.51402	-316.461	-9.26585	32.9577	-286.588	10.3492	15.4263	
2	0.0166667	-270.034	31.4893	37.1022	-250.324	37.6095	12.8033	-228.88	24.5378	-19.7062	-218.088	6.34501	-30.825	-239.575	-8.43347	-39.5536	-223.454	-23.2668	-50.0332	-200.645	-34.8225	-63.8177	-246.292	-31.8078	-37.0657	-221.537	-43.9977	-49.7347	-197.712	-57.8419	-63.9024	-251.584	-47.2955	-28.5181	-225.97	-61.2863	-41.2904	-203.623	-73.7571	-53.4151	-261.068	-64.0869	-10.9995	-237.692	-74.8715	-22.3351	-219.233	-80.0156	-34.9283	-299.431	-30.1428	8.99996	-315.409	-16.1533	34.1801	-295.822	9.05184	16.7992	
3	0.025	-288.016	39.5819	27.5058	-270.781	45.7796	6.1405	-246.995	40.253	-20.5978	-228.654	28.2911	-32.942	-244.005	1.328	-37.1429	-219.29	-3.66651	-50.7547	-197.587	-15.0456	-55.6368	-242.765	-17.9493	-33.6914	-211.584	-25.7281	-44.9879	-184.396	-34.1393	-54.6289	-239.354	-36.1374	-24.8432	-213.374	-42.784	-32.7529	-190.518	-44.7669	-41.7828	-247.313	-49.062	-3.80529	-221.253	-53.1621	-14.9772	-201.784	-58.5522	-26.5836	-292.386	-30.7287	8.37515	-315.811	-25.9191	33.4709	-303.593	7.52167	11.337	
4	0.0333333	-305.845	37.2154	27.711	-289.959	50.0406	-0.681534	-265.459	53.4393	-25.112	-241.383	45.043	-37.8794	-251.134	16.8496	-37.3371	-226.341	15.9603	-46.5176	-198.594	16.5981	-55.3547	-235.683	-0.888799	-35.2474	-205.791	2.22784	-41.9933	-180.382	1.79642	-49.0966	-230.601	-22.5348	-18.2566	-203.739	-15.8742	-28.7752	-176.855	-13.1717	-36.0888	-231.621	-35.8481	0.799332	-211.19	-27.0228	-8.18451	-189.594	-28.4901	-20.4198	-286.87	-30.1364	8.9571	-311.931	-25.5268	29.8393	-307.876	3.32468	9.39705	
5	0.0416667	-318.677	31.6698	18.6586	-310.009	46.0756	-6.42997	-283.549	51.6408	-32.3045	-259.845	53.6586	-44.4943	-261.526	25.7581	-40.7951	-231.445	30.2033	-49.6023	-209.744	39.2049	-58.7719	-238.903	10.3784	-34.5784	-214.718	22.8149	-43.9816	-185.532	29.9154	-50.7107	-228.797	-5.03134	-19.2449	-204.065	6.80231	-28.8726	-182.523	16.6372	-36.8989	-228.525	-15.4103	-0.72421	-210.893	-3.5055	-8.11958	-188.344	1.99133	-19.9789	-284.658	-24.7812	10.2527	-306.001	-30.5354	32.0313	-313.687	0.50758	6.50218	
6	0.05	-332.937	22.9	13.1996	-329.155	36.6679	-14.9161	-308.609	47.3057	-37.5208	-285.925	51.5072	-53.0507	-269.798	22.9759	-48.581	-253.605	35.0306	-60.0956	-227.969	46.1012	-69.6642	-249.442	13.8161	-43.0624	-231.659	29.8778	-54.5033	-203.1	46.1396	-66.6761	-241.226	4.07768	-28.6182	-218.018	18.4434	-39.0431	-196.496	37.2756	-53.9554	-230.583	-5.71392	-7.1375	-212.711	11.2338	-20.7122	-197.317	20.8624	-33.3237	-284.37	-23.0108	8.88482	-302.416	-34.7331	33.5363	-317.594	-11.1046	5.82599	
7	0.0583333	-343.731	11.2486	15.1854	-345.756	22.8505	-14.9527	-333.429	32.5623	-50.4225	-316.284	40.595	-68.7708	-286.228	9.92483	-57.2376	-266.902	25.5596	-74.506	-245.691	38.469	-82.5594	-263.991	4.67331	-53.3304	-245.25	21.8894	-67.573	-222.334	48.0833	-82.3898	-251.1	-2.20956	-39.1509	-228.324	13.8289	-51.3558	-213.181	36.1143	-63.7212	-237.383	-7.55511	-19.0488	-225.454	8.81513	-31.9832	-209.12	27.8826	-48.4989	-283.455	-31.3791	8.55929	-301.024	-38.6564	32.6053	-324.536	-20.1974	3.64013	
8	0.0666667	-346.125	1.22723	12.0596	-351.472	7.66026	-16.8174	-350.318	13.8626	-48.9142	-339.413	18.8192	-76.274	-297.379	-10.5584	-59.2712	-275.428	4.9172	-81.7815	-258.947	30.8562	-91.4563	-274.808	-15.7071	-56.3615	-249.932	6.47202	-76.4705	-235.865	37.279	-82.8927	-255.514	-18.301	-44.5189	-236.794	0.0182196	-60.173	-229.332	33.557	-68.8707	-243.92	-20.2595	-19.6979	-231.241	-2.19135	-40.242	-220.046	24.2783	-52.9676	-286.995	-37.5777	7.15425	-301.233	-43.3136	38.6902	-325.301	-29.315	8.14448	
9	0.075	-345.483	-4.71071	14.0234	-356.473	-0.161134	-17.0503	-362.896	2.74468	-47.7583	-355.834	7.08345	-73.3711	-300.048	-24.0201	-60.11	-278.527	-12.2683	-78.8635	-264.792	21.2992	-80.514	-276.655	-28.681	-58.5627	-256.256	-5.02641	-77.509	-249.072	31.3405	-69.3639	-259.563	-30.0462	-46.751	-238.699	-10.662	-59.4041	-241.978	26.2619	-54.0266	-249.496	-29.18	-20.0323	-230.806	-7.41396	-41.9194	-233.386	22.5965	-42.7626	-286.061	-45.4083	10.8648	-300.696	-47.9484	37.4459	-327.542	-35.771	10.5117	
10	0.0833333	-345.128	-6.71864	10.5122	-351.645	-2.46793	-16.2137	-359.816	-0.506594	-48.9467	-361.548	2.29094	-75.8589	-294.47	-28.4263	-58.7617	-275.646	-10.8015	-76.3226	-272.548	22.1357	-57.2608	-271.807	-33.5354	-57.2379	-253.47	-6.99364	-68.5318	-257.169	23.8379	-42.9524	-252.026	-35.5469	-38.7054	-237.273	-9.72073	-50.2852	-255.042	18.3915	-29.1083	-246.358	-35.6059	-17.2776	-229.369	-9.09503	-33.9914	-243.655	16.0217	-20.8514	-287.363	-50.4169	12.5276	-302.496	-50.0881	37.5807	-325.955	-39.6535	10.2885	
11	0.0916667	-336.771	-3.01242	12.8543	-345.135	3.0413	-16.8634	-351.564	5.82367	-49.1269	-349.448	9.15558	-73.4205	-286.593	-27.0539	-58.8393	-263.796	-5.43065	-65.2053	-269.679	14.5939	-38.884	-267.405	-35.9862	-50.9964	-243.401	-7.03456	-51.957	-262.418	12.1839	-19.48	-249.461	-40.6738	-32.443	-235.052	-12.4921	-36.1384	-255.433	1.99951	-8.94714	-240.597	-43.228	-16.5591	-228.904	-16.0076	-19.0805	-251.325	-0.859089	3.49917	-290.748	-59.1942	11.1653	-307.566	-56.7551	40.2717	-326.887	-36.5901	6.56202	
12	0.1	-330.015	-2.69901	8.96725	-328.538	6.31699	-16.5366	-336.767	17.5414	-49.0099	-336.756	23.4869	-73.0275	-281.825	-31.519	-57.4175	-256.544	-13.6209	-55.6228	-266.641	0.70394	-26.6099	-267.014	-43.9449	-48.2213	-240.662	-21.3788	-36.6172	-260.1	-8.37082	-6.25555	-251.579	-56.5504	-27.3803	-237.007	-27.5427	-21.2065	-262.683	-20.5855	2.63767	-248.015	-63.5407	-7.0656	-233.702	-35.0084	-3.82135	-263.375	-26.0431	14.85	-303.941	-63.9597	7.31729	-323.153	-58.1843	39.5414	-331.165	-35.8971	8.22746	
